<svg width="140" height="144" fill="none" xmlns="http://www.w3.org/2000/svg"><path d="m132 48-6-23-26 7-2-14-5 9h-1L78 0 57 11l13 3-14 8-3-1-5-2-16-5-6-9-13 38-13 6 9 5 8 20-3 10 15-5-13 10 10 3 13 17v5c-2 2-3 5-3 7a17 17 0 0 0 3 14l6 5 7 4a17 17 0 0 0 10-1l3-2 5-4a17 17 0 0 0 3-11l3 1-2 4 10-1 18-1-7-8v-4l8 3v-9l3 3 1 2-3 10 30-12a7 7 0 0 0 5-5 8 8 0 0 0-10-10l-1-3a8 8 0 0 0 5-4l1-3v-3c-1-3-4-5-7-5l1-16 5-2-3-2 1-1 1-6a8 8 0 0 0-7-8l-3 1-1-7 11 8Z" fill="#000"/><path d="M66 122c2 1 3 4 3 6s-1 5-3 7l-3 4-5 2h-6l-6-3-4-5-3-5v-6a15 15 0 0 1 5-8l1-1 1-1 1-1v-1l10 6a15 15 0 0 0-7-1l-2 1a5 5 0 0 0-3 4v3l2 4a23 23 0 0 0 8 5l4 1h3l2-2 2-4-1-5h1Z" fill="#fff"/><path d="m81 103 1 7-2 5a12 12 0 0 1-9 6h-5l-5-2-4-4-2-6v-6l1-6a12 12 0 0 1 9-6h6l4 2 4 4 2 6Zm-17 4a38 38 0 0 0 3 8l2 2h2l1-1 1-2v-4a38 38 0 0 0-3-13l-2-2h-2l-2 1-1 2v4l1 5Z" fill="#fff"/><path d="M98 102h-8l1 7h4l4-1v7l-3-1h-5v9l3 4H81l2-3-1-23-3-3 22-1 1 9-4-4Zm25-15-4-2-22-2-4 3 2-23 8 1-3 3-1 8h7v-4l-1-4 7 1-1 3v5h7l1-8-4-3h9l-1 22Z" fill="#fff"/><path d="m109 120 1-4-8-21-4-2 21-8 3 8-4-3-8 4 3 6 4-2 2-2 3 7h-3l-5 1 3 7 8-3 1-4 4 8-21 8ZM78 73l-2 8 6 2 2-5-1-3 7 2-2 2-1 5 9 2 4-2-3 13-3-3-22-5-4 2 5-22 9 2-4 2Zm-36 7-7 5 5 6 4-3 2-3 5 6-4 1-4 3 6 8 5 1-12 9v-5L27 89l-4-1 18-14 6 7-5-1Z" fill="#fff"/><path d="m60 93-1-4-18-16-4-1 9-11 1 5 18 16h5L60 93Z" fill="#fff"/><path d="M77 47v3a9 9 0 0 1-2 6l-3 1 2 1a10 10 0 0 1 3 2l3 4 2 1h2v2l-2 1a9 9 0 0 1-3 1l-4 1-3-3-4-5-2-1h-2l2 7 3 3-13 3 1-4-5-24-4-3 13-3h6l4 1 4 2 2 4Zm-9 2-1-3-2-1-2-1-2 1 2 11h2a4 4 0 0 0 3-4v-3Z" fill="#fff"/><path d="M102 53a9 9 0 0 1-3 8l-4 2-4 1a26 26 0 0 1-5 0 315 315 0 0 1-6 1l-2-14 2 4 3 3 3 1 3 1 2-1h1l1-1v-2l-1-2-2-2-3-1-3-1-6-2-2-6v-4l2-3 4-2 4-2h9l1-1 2 12-2-3a12 12 0 0 0-6-3h-3l-3 1-1 2 1 2 3 1 4 1 3 1 5 3 3 6Zm-61 5c2 3 2 6 0 9s-5 5-9 7l-13 5 1-4-9-23-3-2 11-5 4-1 4-1h4l2 3v3l-1 2-2 1h3a10 10 0 0 1 6 3c1 0 2 1 2 3Zm-16-8-1-1-1-1-2 1h-1l2 5 2-2 1-2Zm8 12-1-3-3-1-2-1-4 1 6 13 3-2a6 6 0 0 0 2-5l-1-2Z" fill="#fff"/><path d="m120 37-4 1 5 21 4 3-14 4 2-4-6-22-5 1-2 6-3-10 26-7 2 10-5-3ZM29 17l18 6 4 2a10 10 0 0 1 3 7l-1 4-1 2-2 4-3 3-4 2-5-1-16-6-5 2 5-14 3 3 16 6 3 1 2-1 2-1a8 8 0 0 0 1-3v-2l-2-2-2-1-17-6-5 2 4-10 2 3Zm107 88v3l-2 3h-3l-2-1a4 4 0 0 1-1-3v-2a4 4 0 0 1 3-2h3a4 4 0 0 1 2 2Z" fill="#fff"/><path d="m82 28-3-4-19 10-2 4-7-13 5 1 19-10-2-4-6-2 9-5 12 24-9 5 3-6Zm46 26-1 5-2 3h-1v-1l1-1v-1l-1-1-3-1-1-3 1-2 3-1a4 4 0 0 1 3 1l1 1v1Zm2 34c1 2 0 4-2 4-2 1-4 0-5-2-1-1 0-4 2-4 2-1 4 0 5 2Zm-6 2c0 2 2 2 4 2 1-1 2-2 1-4s-2-2-4-2c-1 1-2 3-1 4Zm3 1h-1l-2-3 2-1h1l1 1-1 1h1l1 1h-3l1 1Zm-1-2 1-1h-2l1 1Z" fill="#fff"/></svg>