<svg width="227" height="192" fill="none" xmlns="http://www.w3.org/2000/svg"><mask id="a" style="mask-type:alpha" maskUnits="userSpaceOnUse" x="0" y="0" width="227" height="192"><path d="m49 0 178 72-49 120L1 120 49 0Z" fill="#fff"/></mask><g mask="url(#a)" fill-rule="evenodd" clip-rule="evenodd"><path d="M211 99h-1 1Zm10-14v-1s0-2-2-3h-2a235 235 0 0 0-17-2l-1 1v-1l-3-2-2-1h-3l-4 2-1-1-3-2h-1a22 22 0 0 1-1-1l-1-2v-2l-10-14a61 61 0 0 0-69-16c-5 2-16 7-20 13l-8 9-4 1a7 7 0 0 1-2 1 24 24 0 0 0-6-8l-2-2-2-1h-1l-3-1h-7a27 27 0 0 0-7 2 41 41 0 0 0-9 5l-1 1-1 1a29 29 0 0 0-5 6l-2 4-1 1a31 31 0 0 0-4 11v10a21 21 0 0 0 4 10 18 18 0 0 0 8 7 22 22 0 0 0 11 2l-1 2a3 3 0 0 0 3 4l4-2v-1a1341 1341 0 0 0 4-5v-1l2-2 1 2 2 3 2 2a19 19 0 0 0 5 3h2l3 9c2 6 6 12 11 18a59 59 0 0 0 43 20c17 1 32-5 45-16 3-2 6-5 7-9l2-3a264 264 0 0 0 10 2h1l3 1h2a4 4 0 0 0 2 1c2 0 4 0 5-2l1-4-1-2-2-1 2-4c0-1 0-3-2-3-1-1-3-1-4 1a38 38 0 0 1-8 5h-1a13 13 0 0 1-3-1h1a9 9 0 0 1 0-1l3-4v-1a3 3 0 0 0 3 3l3-1 2-2v-1l1-1v-1l1-1 2-3v-3a3 3 0 0 0-4-2l1-1 1-1v-1a13 13 0 0 1 2-1h2a15 15 0 0 1 3 1v1l-1 1v6l3 1 3-2 1-2 1-1v-1l1-1v-1l2-3v-2c3-1 6-3 6-6a4 4 0 0 0-2-3 5 5 0 0 0-4-1l1-1v-1l1-1v-1l2-2a3 3 0 0 0 1 1l1 1c1 0 3 0 4-2l1-3Z" fill="#FFFFFE"/><path d="M182 111A60 60 0 1 1 64 90a60 60 0 0 1 118 21" fill="#fff"/></g><path fill-rule="evenodd" clip-rule="evenodd" d="M134 41h-9c-6 0-5-1-4 5 4 0 10 2 13-5Zm-17 0-14 4 3 3 1 1 11-3-1-5Zm16 5c13 2 24 7 34 15l-3-5c-7-6-14-10-23-13-4-1-5-1-8 3ZM83 57c2-9 30-20 47-18 15 2 28 8 38 19 4 4 7 9 9 14h-1l-2-1a66 66 0 0 0-40-22h-3v3l3 4 12 10 2 3-2-1-14-11c-2-2-4-5-3-8h-7l-1 2 2 11v3h-1l-1-2-2-12-2-2-4 1-5 1v4c-1 2-1 4-4 6 1-3 2-6 1-9l-14 6-1-1 2-2 10-4 2-1c-2-4-3-5-6-3l-12 8-2 2h-1Zm48 65 5 37c14-3 24-10 34-21-2 4-4 6-7 8a59 59 0 0 1-42 16c-17-1-31-8-41-20-6-6-10-12-12-20 8 15 17 26 32 33-6-13-10-19-11-34h1l1 2c1 13 4 18 11 29 1 3 3 5 7 6 7 2 15 2 23 1 2 0 2 0 2-3l-4-31v-3h1ZM63 66l1 3 1 3v2a17 17 0 0 1-1 2l1 1v-1l1-1 1-1 2-3 3-4v-1h-1l-1 1-3 1-2-1v-1a21 21 0 0 0-5-7l-2-2-3-1h-9a25 25 0 0 0-6 1 38 38 0 0 0-8 5l-1 1-1 1-4 5-3 5a28 28 0 0 0-4 10v10a18 18 0 0 0 3 9l2 2a21 21 0 0 0 11 5l2 1 2-1h1l2 1v3l-1 1h2l2-4c1 0 2-1 2-3l2-2 1-2-1-1-1 1-1 1-3 2-4 1h-7l-1-1-1-2-1-2-2-7 1-7a33 33 0 0 1 5-11l2-4 4-5a47 47 0 0 1 12-10h3a6 6 0 0 1 3 1l2 2 2 2 1 2Z" fill="#000"/><path fill-rule="evenodd" clip-rule="evenodd" d="m80 95-1 4-2 4-2 2-1 2c-1 2-2 3-4 3l-4 1c-2 0-3 0-4-2v-5l1-4a42 42 0 0 1 7-12l4-3 3-1a3 3 0 0 1 2 1l1 1v1l1 3v3l-1 2Zm1 15a35 35 0 0 0 6-8l1-3a14 14 0 0 0 1-8l-1-3a12 12 0 0 0-3-4l-2-2-3-1a15 15 0 0 0-5-1h-3l-5 2-3 2-2 1-4 4-2 3-2 3v11l1 2 1 2 2 2a16 16 0 0 0 4 2l2 1h5l3-1h2l1-1h2a18 18 0 0 0 4-3Zm64-14 1 1v5l-1 1v1l1-1 3-4 1-2 1-1v-1l-6-1-5-1-4-1h-3a56 56 0 0 1-5-1h-1l1 1v1l-1 2-1 2-1 2-1 1-1 2-1 2-2 4-1 2-1 2-4 6-1 2-3 2v1h2l9 2h1v-1l-1-1v-1l8-14h2l2 1h1l-1 2 1 1v-1l1-1 3-4v-1h-1l-2 2h-3l-2-1 2-4 2-3 1-2 1-1v-1h4l2 1h3Zm-29-6a5 5 0 0 1 2 2l1 1-2 3v2l1-1 2-3 1-1 1-2 1-1-1-1h-2l-2-1h-3l-6-1-7-1-3-1-1 1h1v3l-1 1-1 2-2 3-2 3a371 371 0 0 1-11 17l-2 1v1h1l9 2h2s1 0 0 0v-1h-1v-1l1-2 1-2 1-2 1-1 2-3 2-3 1-1 1-1h1v1h3v3l1-1a16 16 0 0 0 2-2l1-3s0-1 0 0l-2 1-1 1h-2l-2-1v-2l1-1a122 122 0 0 1 4-7l2-2h2l5 1h-1 1Zm49 32h-1a35 35 0 0 1-9 6h-4l-2-1h-2v-1l1-2 1-2 4-7 1-1v-1h2l2 1v3l-1 1h1l2-2 1-2 2-3 1-2-1 1-2 2h-6l6-8 1-2 1-1 2-2h1l2 1h3l2 2 1 2-1 1v5l1-1v-1l2-3 1-2 1-2v-1l-3-1h-3a858 858 0 0 1-15-3h-1l1 1-1 1-1 2-3 4-3 4-2 3-1 3-1 2-2 2a114 114 0 0 0-4 7h-1l-1 1h-1v1l2 1h3a444 444 0 0 0 13 2l3 1h3l1-1 2-4 2-4ZM91 67l-3 2h-4l2-3 2-2 1-1 2 1v3Zm-4 5-1 3-2 1h-5l3-4 1-2h2l2 1v1Zm8-6v-1l-1-1-1-1-5-1h-2l-2-1c-1 0-2 0-1 1v1l-1 2a297 297 0 0 0-2 2l-1 2-2 3-2 2v1l-2 1h3l1 1h3l3 1h7v-1l1-1v-5l-1-1h1l2-1 2-3Zm19 1v-1h-3l-1-1h-1v1l1 1v2l-4 5-1 2-3 2-3 1v-1l-1-1h1l1-3 1-3 2-3v-1l1-1 2-1h-1l-1-1h-5v1h1l-2 3-1 2-1 1-1 4-1 2 1 1 2 1 1 1h4l6-6 1-3 1-2 1-1 1-1h2Zm18 3-2-1h-4l-5-1h-1l-3-1h-2l-1 1v2l1-1 2-1h2l1 1h1l-1 1-1 1a105 105 0 0 0-4 6v1a249 249 0 0 1-4 4h-1l1 1h4l2 1h1l1-1-1-1 1-1 1-1 2-4 3-4a14 14 0 0 1 1-2h4v2c0 1 0 1 0 0l1-1 1-1Zm23 4v1l1 1v-1l1-1-1-1a436 436 0 0 0-14-2h-1v1h1v1l-1 1-3 5-1 2v1l-1 2-1 1h-1l-1 1 2 1 5 1 1-1h-1v-1a61 61 0 0 1 4-6v-1l2 1h2v1l1-1v-1h-2l-3-1 1-1 2-2 1-2h4l3 1Zm12 4 2-1 1-1h-2l-4-1-4-1c0 1 0 0 0 0l-1 1h1v1s1 0 0 0v1l-4 7-2 4h-1l-1 1-1 1h4l5 1v-2l1-2 2-4 2-3 2-2Zm8 5 1-3 1-1v-1h2l1 1v3l-1 1-1 1h-1l-1-1h-2 1Zm7 10c0-1 0 0 0 0l-1 1h-1l-1-1v-4l-1-4h2l2-1 3-3v-1l-1-1-2-1-1-1-9-1c-1 0-1 0 0 0v1h1l-1 1-1 3-3 3-3 5v1l-1 1h1l3 1h2v-3a60 60 0 0 1 4-5l1 1v9l2 1h4l1-2Z" fill="#000"/><path fill-rule="evenodd" clip-rule="evenodd" d="M198 87a31 31 0 0 0 2-2l-1-1-1 1v-2l-1-2-1-1h-5l-2 1-1 2v4l1 3v4l-2 1-1-1-2-3v-3l-1 1a15 15 0 0 0-2 3l-1 1h1l1-1h1l1 1v1a9 9 0 0 0 2 2h1l4 1 2-2 1-3v-2l-1-2v-5l1-1h1l1 2 1 3v1h1v-1Zm-9 3Zm29-5v-1h-2l-6-1-6-1h-3v1l-1 1h1l1-1h5v1l-1 1-2 2-2 4-1 1-2 4h-1l-1 1c-1 0 0 0 0 0l1 1 6 1h2l-1-1v-1l1-1v-1l2-4h1l1-2 3-4v-1l3 1 1 1-1 1h1l1-2Zm-5 14-2-2-1 2 1 1h-2l-1 1h2c2 0 3-1 3-2Zm-18 35-3 1-1 1 1 1h3v-3Zm0-7h-2a35 35 0 0 1-8 5l-3 1h-2l-2-1h-1v-3l1-2 5-7v-2h3l1 1h1l-1 2v2h1l1-2 1-2 3-4v-1h-1l-2 2-1 1h-3l-1-1 5-7 1-2 2-2 1-1h1l3 1h2l3 2v3l-1 3v2l1-1 1-2 1-2 2-2 1-2v-1l-4-1-2-1a837 837 0 0 1-16-3l-1 1h1v1l-1 1-1 2-2 4-3 4-2 3-2 2-1 2-1 3a113 113 0 0 0-5 6v1l-2 1v1l2 1h2a440 440 0 0 0 14 2l2 1h4l1-2 1-3 3-4" fill="#000"/></svg>